<svg id="Layer_1" data-name="Layer 1" xmlns="http://www.w3.org/2000/svg" viewBox="0 0 1920 1080"><title>logo_v3</title><path d="M508.75,380.76c0,30.8-22.8,49.8-59.6,49.8h-31.6V471h-26V331h57.6C486,331,508.75,349.76,508.75,380.76Zm-26.2,0c0-17.6-11.8-27.79-34.6-27.79h-30.4v55.59H448C470.75,408.56,482.55,398.36,482.55,380.76Z"/><path d="M526.75,401c0-41.4,32-72,75.4-72s75.4,30.39,75.4,72-32,72-75.4,72S526.75,442.36,526.75,401Zm124.6,0c0-28.6-21-49.2-49.2-49.2S553,372.36,553,401s21,49.2,49.2,49.2S651.35,429.56,651.35,401Z"/><path d="M796.74,471l-28.59-41a48.83,48.83,0,0,1-5.4.2h-31.6V471h-26V331h57.6c36.79,0,59.59,18.79,59.59,49.79,0,21.2-10.8,36.8-29.8,44.2l32.2,46ZM761.55,353h-30.4v55.79h30.4c22.79,0,34.59-10.4,34.59-28S784.34,353,761.55,353Z"/><path d="M877.74,353h-46.4V331h118.8v22h-46.4V471h-26Z"/><path d="M995.74,352.76v42.6h67.6v22h-67.6V471h-26V331h102.2v21.79Z"/><path d="M1085.54,401c0-41.4,32-72,75.4-72s75.4,30.39,75.4,72-32,72-75.4,72S1085.54,442.36,1085.54,401Zm124.6,0c0-28.6-21-49.2-49.2-49.2s-49.2,20.6-49.2,49.2,21,49.2,49.2,49.2S1210.14,429.56,1210.14,401Z"/><path d="M1263.94,331h26V449h73.2v22h-99.2Z"/><path d="M1383.74,331h26V471h-26Z"/><path d="M1437.54,401c0-41.4,32-72,75.4-72s75.4,30.39,75.4,72-32,72-75.4,72S1437.54,442.36,1437.54,401Zm124.6,0c0-28.6-21-49.2-49.2-49.2s-49.2,20.6-49.2,49.2,21,49.2,49.2,49.2S1562.14,429.56,1562.14,401Z"/><line x1="1420.53" y1="430.06" x2="1420.03" y2="435.31" style="fill:none"/><polyline points="1606 467.69 356.3 352.96 357.02 341.84 1603.76 465.95" style="fill:#fff"/><path d="M934.15,572.66l2-2.21a11.87,11.87,0,0,0,10.07,5.72c6,0,9-3.45,9-10.73V536.32H938.51v-3h20.08v32.11c0,9.17-4.22,13.72-12.35,13.72A14.22,14.22,0,0,1,934.15,572.66Z" style="fill:#2d2d2d"/><path d="M1005.46,575.84v3h-31.4v-45.5h30.43v3H977.38v17.94h24.24v2.93H977.38v18.65Z" style="fill:#2d2d2d"/><path d="M1052.19,548.67c0,9.56-6.89,15.28-18.33,15.28h-13v14.88h-3.31v-45.5h16.31C1045.3,533.33,1052.19,539.05,1052.19,548.67Zm-3.38,0c0-7.86-5.2-12.35-15-12.35h-13V561h13C1043.61,561,1048.81,556.47,1048.81,548.67Z" style="fill:#2d2d2d"/><path d="M1098,548.67c0,9.56-6.89,15.28-18.33,15.28h-13v14.88h-3.32v-45.5h16.32C1091.13,533.33,1098,539.05,1098,548.67Zm-3.38,0c0-7.86-5.2-12.35-15-12.35h-13V561h13C1089.44,561,1094.64,556.47,1094.64,548.67Z" style="fill:#2d2d2d"/><path d="M1140.59,575.84v3H1109.2v-45.5h30.42v3h-27.11v17.94h24.25v2.93h-24.25v18.65Z" style="fill:#2d2d2d"/><path d="M1180.7,566.68h-25.35l-5.46,12.15h-5l20.8-45.5h4.75l20.8,45.5h-5.07Zm-1.76-3.9L1168,538.34l-10.92,24.44Z" style="fill:#1c1c1c"/><path d="M1236.79,533.33v45.5h-4l-29.25-36.92v36.92h-4.81v-45.5h4l29.32,36.92V533.33Z" style="fill:#1c1c1c"/><path d="M1251.61,533.33h18.53c14.56,0,24.37,9.36,24.37,22.75s-9.81,22.75-24.37,22.75h-18.53Zm18.27,41.34c12.09,0,19.89-7.67,19.89-18.59s-7.8-18.59-19.89-18.59h-13.46v37.18Z" style="fill:#1c1c1c"/><path d="M1337.48,574.67v4.16H1305.3v-45.5h31.2v4.16h-26.39v16.19h23.53v4.09h-23.53v16.9Z" style="fill:#1c1c1c"/><path d="M1379.86,578.83l-10.4-14.62a32.42,32.42,0,0,1-3.64.19H1353.6v14.43h-4.81v-45.5h17c11.57,0,18.59,5.85,18.59,15.6,0,7.15-3.77,12.16-10.4,14.3l11.11,15.6Zm-.26-29.9c0-7.28-4.81-11.44-13.91-11.44H1353.6v22.82h12.09C1374.79,560.31,1379.6,556.08,1379.6,548.93Z" style="fill:#1c1c1c"/><path d="M1391.42,573.31l1.89-3.71c3.25,3.19,9,5.53,15,5.53,8.51,0,12.22-3.58,12.22-8.06,0-12.48-28-4.81-28-21.65,0-6.69,5.2-12.48,16.77-12.48a25.73,25.73,0,0,1,14.11,4l-1.63,3.84A23.38,23.38,0,0,0,1409.3,537c-8.32,0-12,3.7-12,8.25,0,12.48,28,4.94,28,21.52,0,6.69-5.33,12.41-17,12.41C1401.5,579.22,1394.81,576.82,1391.42,573.31Z" style="fill:#1c1c1c"/><path d="M1467.93,574.67v4.16h-32.18v-45.5H1467v4.16h-26.39v16.19h23.53v4.09h-23.53v16.9Z" style="fill:#1c1c1c"/><path d="M1517.27,533.33v45.5h-4l-29.25-36.92v36.92h-4.81v-45.5h4l29.32,36.92V533.33Z" style="fill:#1c1c1c"/></svg>
