<svg id="Layer_1" data-name="Layer 1" xmlns="http://www.w3.org/2000/svg" viewBox="0 0 1250 255"><title>logo_v4</title><path d="M143.19,54.17c0,30.8-22.8,49.8-59.6,49.8H52v40.4H26V4.37h57.6C120.39,4.37,143.19,23.17,143.19,54.17Zm-26.2,0c0-17.6-11.8-27.8-34.6-27.8H52V82h30.4C105.19,82,117,71.77,117,54.17Z"/><path d="M161.19,74.37c0-41.4,32-72,75.4-72s75.4,30.4,75.4,72-32,72-75.4,72S161.19,115.77,161.19,74.37Zm124.6,0c0-28.6-21-49.2-49.2-49.2s-49.2,20.6-49.2,49.2,21,49.2,49.2,49.2S285.79,103,285.79,74.37Z"/><path d="M431.19,144.37l-28.6-41a48.74,48.74,0,0,1-5.4.2h-31.6v40.8h-26V4.37h57.6c36.8,0,59.6,18.8,59.6,49.8,0,21.2-10.8,36.8-29.8,44.2l32.2,46ZM396,26.37h-30.4v55.8H396c22.8,0,34.6-10.4,34.6-28S418.79,26.37,396,26.37Z"/><path d="M512.19,26.37h-46.4v-22h118.8v22h-46.4v118h-26Z"/><path d="M630.19,26.17v42.6h67.59v22H630.19v53.6h-26V4.37H706.38v21.8Z"/><path d="M720,74.37c0-41.4,32-72,75.39-72s75.4,30.4,75.4,72-32,72-75.4,72S720,115.77,720,74.37Zm124.59,0c0-28.6-21-49.2-49.2-49.2s-49.19,20.6-49.19,49.2,21,49.2,49.19,49.2S844.58,103,844.58,74.37Z"/><path d="M898.38,4.37h26v118h73.2v22h-99.2Z"/><path d="M1018.18,4.37h26v140h-26Z"/><path d="M1072,74.37c0-41.4,32-72,75.4-72s75.4,30.4,75.4,72-32,72-75.4,72S1072,115.77,1072,74.37Zm124.6,0c0-28.6-21-49.2-49.2-49.2s-49.2,20.6-49.2,49.2,21,49.2,49.2,49.2S1196.58,103,1196.58,74.37Z"/><line x1="1054.97" y1="103.47" x2="1054.48" y2="108.71" style="fill:none"/><polyline points="1240.44 141.1 -9.26 26.37 -8.53 15.25 1238.2 139.35" style="fill:#fff"/><path d="M568.6,215.07l2-2.22a11.87,11.87,0,0,0,10.08,5.73c6,0,9-3.45,9-10.73V178.73H573v-3H593v32.11c0,9.16-4.23,13.72-12.35,13.72A14.22,14.22,0,0,1,568.6,215.07Z" style="fill:#2d2d2d"/><path d="M639.9,218.25v3H608.51v-45.5h30.42v3H611.82v17.94h24.25v2.92H611.82v18.66Z" style="fill:#2d2d2d"/><path d="M686.64,191.08c0,9.55-6.89,15.27-18.33,15.27h-13v14.89H652v-45.5h16.32C679.75,175.74,686.64,181.46,686.64,191.08Zm-3.38,0c0-7.87-5.2-12.35-15-12.35h-13v24.63h13C678.06,203.36,683.26,198.88,683.26,191.08Z" style="fill:#2d2d2d"/><path d="M732.46,191.08c0,9.55-6.89,15.27-18.33,15.27h-13v14.89h-3.31v-45.5h16.31C725.57,175.74,732.46,181.46,732.46,191.08Zm-3.38,0c0-7.87-5.2-12.35-15-12.35h-13v24.63h13C723.88,203.36,729.08,198.88,729.08,191.08Z" style="fill:#2d2d2d"/><path d="M775,218.25v3h-31.4v-45.5h30.42v3H747v17.94H771.2v2.92H747v18.66Z" style="fill:#2d2d2d"/><path d="M815.14,209.08H789.79l-5.46,12.16h-5l20.8-45.5h4.74l20.8,45.5H820.6Zm-1.75-3.9-10.92-24.44-10.92,24.44Z" style="fill:#1c1c1c"/><path d="M871.24,175.74v45.5h-4L838,184.32v36.92h-4.81v-45.5h4l29.31,36.92V175.74Z" style="fill:#1c1c1c"/><path d="M886.06,175.74h18.52c14.56,0,24.38,9.36,24.38,22.75s-9.82,22.75-24.38,22.75H886.06Zm18.26,41.34c12.09,0,19.89-7.67,19.89-18.59s-7.8-18.59-19.89-18.59H890.87v37.18Z" style="fill:#1c1c1c"/><path d="M971.92,217.08v4.16H939.74v-45.5H971v4.16H944.56v16.18h23.53v4.1H944.56v16.9Z" style="fill:#1c1c1c"/><path d="M1014.3,221.24l-10.4-14.63a32.35,32.35,0,0,1-3.64.2H988v14.43h-4.81v-45.5h17c11.57,0,18.59,5.85,18.59,15.6,0,7.15-3.77,12.15-10.4,14.3l11.12,15.6Zm-.26-29.9c0-7.28-4.81-11.44-13.91-11.44H988v22.81h12.09C1009.23,202.71,1014,198.49,1014,191.34Z" style="fill:#1c1c1c"/><path d="M1025.87,215.71l1.88-3.7c3.25,3.19,9,5.53,15,5.53,8.51,0,12.22-3.58,12.22-8.07,0-12.48-28-4.81-28-21.64,0-6.7,5.2-12.48,16.77-12.48a25.65,25.65,0,0,1,14.11,4l-1.63,3.83a23.47,23.47,0,0,0-12.48-3.77c-8.32,0-12,3.71-12,8.26,0,12.48,28,4.94,28,21.51,0,6.7-5.33,12.42-17,12.42C1035.94,221.63,1029.25,219.23,1025.87,215.71Z" style="fill:#1c1c1c"/><path d="M1102.37,217.08v4.16H1070.2v-45.5h31.2v4.16H1075v16.18h23.53v4.1H1075v16.9Z" style="fill:#1c1c1c"/><path d="M1151.71,175.74v45.5h-4l-29.25-36.92v36.92h-4.81v-45.5h4L1147,212.66V175.74Z" style="fill:#1c1c1c"/></svg>
