<svg id="Layer_1" data-name="Layer 1" xmlns="http://www.w3.org/2000/svg" viewBox="0 0 1920 1080"><title>Logo_v1</title><path d="M508.75,380.76c0,30.8-22.8,49.8-59.6,49.8h-31.6V471h-26V331h57.6C486,331,508.75,349.76,508.75,380.76Zm-26.2,0c0-17.6-11.8-27.79-34.6-27.79h-30.4v55.59H448C470.75,408.56,482.55,398.36,482.55,380.76Z"/><path d="M526.75,401c0-41.4,32-72,75.4-72s75.4,30.39,75.4,72-32,72-75.4,72S526.75,442.36,526.75,401Zm124.6,0c0-28.6-21-49.2-49.2-49.2S553,372.36,553,401s21,49.2,49.2,49.2S651.35,429.56,651.35,401Z"/><path d="M796.74,471l-28.59-41a48.83,48.83,0,0,1-5.4.2h-31.6V471h-26V331h57.6c36.79,0,59.59,18.79,59.59,49.79,0,21.2-10.8,36.8-29.8,44.2l32.2,46ZM761.55,353h-30.4v55.79h30.4c22.79,0,34.59-10.4,34.59-28S784.34,353,761.55,353Z"/><path d="M877.74,353h-46.4V331h118.8v22h-46.4V471h-26Z"/><path d="M995.74,352.76v42.6h67.6v22h-67.6V471h-26V331h102.2v21.79Z"/><path d="M1085.54,401c0-41.4,32-72,75.4-72s75.4,30.39,75.4,72-32,72-75.4,72S1085.54,442.36,1085.54,401Zm124.6,0c0-28.6-21-49.2-49.2-49.2s-49.2,20.6-49.2,49.2,21,49.2,49.2,49.2S1210.14,429.56,1210.14,401Z"/><path d="M1263.94,331h26V449h73.2v22h-99.2Z"/><path d="M1383.74,331h26V471h-26Z"/><path d="M1437.54,401c0-41.4,32-72,75.4-72s75.4,30.39,75.4,72-32,72-75.4,72S1437.54,442.36,1437.54,401Zm124.6,0c0-28.6-21-49.2-49.2-49.2s-49.2,20.6-49.2,49.2,21,49.2,49.2,49.2S1562.14,429.56,1562.14,401Z"/><path d="M932.33,561.2l2-2.21a11.86,11.86,0,0,0,10.08,5.72c6,0,9-3.44,9-10.72V524.87H936.7v-3h20.09l0,32.11c0,9.17-4.23,13.72-12.35,13.71A14.19,14.19,0,0,1,932.33,561.2Z"/><path d="M999.87,551.22H970.68c.32,8.06,6.24,13.52,14.36,13.52A13.64,13.64,0,0,0,995.9,560l1.88,2.15c-3,3.64-7.67,5.52-12.8,5.52-10.27,0-17.49-7.16-17.48-17.24s7-17.22,16.26-17.21,16.18,7,16.17,17.1C999.93,550.57,999.87,550.89,999.87,551.22Zm-29.12-2.55h26c-.45-7.34-5.78-12.61-13-12.61S971.27,541.26,970.75,548.67Z"/><path d="M1043.81,550.46c0,10.2-7.22,17.22-16.78,17.22a15.21,15.21,0,0,1-13.78-8V580H1010l0-46.54h3.12v8a15.16,15.16,0,0,1,13.92-8.25C1036.6,533.23,1043.81,540.32,1043.81,550.46Zm-3.25,0c0-8.52-5.91-14.31-13.71-14.31s-13.65,5.78-13.66,14.3,5.85,14.3,13.65,14.3S1040.55,559,1040.56,550.46Z"/><path d="M1087.68,550.48c0,10.2-7.22,17.22-16.78,17.22a15.18,15.18,0,0,1-13.77-8V580h-3.25l0-46.54H1057v8a15.14,15.14,0,0,1,13.91-8.25C1080.48,533.25,1087.69,540.34,1087.68,550.48Zm-3.25,0c0-8.52-5.91-14.31-13.71-14.31s-13.65,5.78-13.65,14.3,5.84,14.3,13.64,14.3S1084.43,559,1084.43,550.48Z"/><path d="M1126.42,551.28l-29.18,0c.32,8.07,6.23,13.53,14.35,13.53a13.7,13.7,0,0,0,10.86-4.74l1.89,2.15c-3,3.64-7.68,5.52-12.81,5.52-10.27,0-17.48-7.16-17.48-17.24s7-17.22,16.26-17.22,16.18,7,16.18,17.11C1126.49,550.63,1126.42,551,1126.42,551.28Zm-29.12-2.55h26c-.45-7.34-5.78-12.61-13-12.61S1097.82,541.32,1097.3,548.73Z"/><path d="M1182.45,554.68h-26.39l-5.79,12.8h-3.58l21-45.49H1171l20.91,45.51h-3.58Zm-1.23-2.79-12-26.27-11.91,26.26Z"/><path d="M1229.45,547.68v19.83h-3.25V547.94c0-7.67-4.09-11.7-11-11.7-8,0-12.88,5.13-12.88,13.19V567.5h-3.25l0-33.93h3.12v7.34c2.28-4.74,7-7.6,13.46-7.6C1223.93,533.32,1229.45,538.19,1229.45,547.68Z"/><path d="M1273.07,519.3l0,48.23h-3.18v-8a15,15,0,0,1-13.92,8.25c-9.55,0-16.76-7.09-16.76-17.23s7.23-17.22,16.78-17.22a15.21,15.21,0,0,1,13.84,8.13V519.3Zm-3.26,31.26c0-8.51-5.85-14.3-13.65-14.3s-13.65,5.78-13.65,14.29,5.84,14.3,13.64,14.31S1269.8,559.08,1269.81,550.56Z"/><path d="M1315.44,551.37l-29.19,0c.32,8.06,6.23,13.53,14.36,13.53a13.7,13.7,0,0,0,10.86-4.74l1.88,2.14c-3,3.64-7.67,5.53-12.81,5.52-10.27,0-17.48-7.15-17.47-17.23s7-17.22,16.25-17.22,16.19,7,16.18,17.11C1315.5,550.71,1315.44,551,1315.44,551.37Zm-29.12-2.55h26c-.45-7.35-5.78-12.61-13-12.62S1286.84,541.41,1286.32,548.82Z"/><path d="M1341.64,533.37v3.19c-.26,0-.52-.07-.78-.07-7.54,0-12,5-12,13.39v17.68h-3.25V533.62h3.12V541C1330.78,536.1,1335.27,533.37,1341.64,533.37Z"/><path d="M1345.91,563.47l1.5-2.6a19.73,19.73,0,0,0,12.22,4.1c7.15,0,10-2.53,10-6.36,0-9.88-22.49-2.61-22.48-15.94,0-5.14,4.29-9.29,12.87-9.29,4.29,0,9,1.3,11.64,3.32l-1.5,2.6a17.47,17.47,0,0,0-10.2-3.06c-6.63,0-9.56,2.73-9.56,6.37,0,10.2,22.49,3,22.48,15.93,0,5.53-4.75,9.29-13.39,9.29C1353.91,567.83,1348.58,565.94,1345.91,563.47Z"/><path d="M1410.66,551.41h-29.19c.32,8.06,6.24,13.52,14.36,13.52a13.67,13.67,0,0,0,10.86-4.74l1.88,2.15c-3,3.64-7.67,5.52-12.8,5.52-10.27,0-17.49-7.16-17.48-17.24s7-17.22,16.26-17.21,16.18,7,16.17,17.1C1410.72,550.76,1410.66,551.08,1410.66,551.41Zm-29.12-2.55h26c-.45-7.34-5.78-12.61-13-12.61S1382.06,541.45,1381.54,548.86Z"/><path d="M1451.15,547.79v19.82h-3.25V548.05c0-7.67-4.08-11.71-11-11.71-8,0-12.87,5.13-12.87,13.19V567.6h-3.25l0-33.93h3.12V541c2.28-4.74,7-7.6,13.46-7.59C1445.64,533.42,1451.16,538.3,1451.15,547.79Z"/><polyline points="1420.03 435.31 513.95 374.3 513.95 358.09 1420.53 430.06" style="fill:#fff"/><line x1="1420.53" y1="430.06" x2="1420.03" y2="435.31" style="fill:none"/></svg>
